<svg xmlns="http://www.w3.org/2000/svg" viewBox="0 0 150.26 100.37"><defs><style>.cls-1{fill:#fff;}</style></defs><title>main-logo-desktop</title><g id="Layer_2" data-name="Layer 2"><g id="Layer_1-2" data-name="Layer 1"><path class="cls-1" d="M150.26,25.58l-5,3.61C128.65,41,105.84,54.78,89.43,55,95.73,37.2,85.25,2.14,48.33.07,25.14-1.24.41,17.05,0,47.38-.7,99.67,75.92,120,145.27,77.22c0,0,2-1.28,5-3.2Z"/><path d="M16.06,54.94A3.87,3.87,0,0,0,18.65,56a1.78,1.78,0,0,0,2-1.71c0-2.49-4.95-1.85-4.95-4.92a2.85,2.85,0,0,1,3.09-2.65,3.85,3.85,0,0,1,2.65,1l-.48.81a3.38,3.38,0,0,0-2.17-.84,1.89,1.89,0,0,0-2.09,1.7c0,2.35,4.95,1.67,4.95,4.92a2.73,2.73,0,0,1-3,2.67,4.37,4.37,0,0,1-3.14-1.26Z"/><path d="M40.64,46.73A5,5,0,0,1,44.21,48l-.52.72a4.67,4.67,0,0,0-3-1.1,4,4,0,0,0-4,4.13,4.08,4.08,0,0,0,4,4.28,4.64,4.64,0,0,0,3.21-1.32l.56.69a5.29,5.29,0,0,1-3.79,1.53,5,5,0,0,1-5-5.17A4.91,4.91,0,0,1,40.64,46.73Z"/><path d="M47.19,46.9h1v9.87h-1Z"/><path d="M51.09,46.9h5.58v.87H52.06v3.6h3.76v.87H52.06V55.9h4.86v.87H51.09Z"/><path d="M62.43,47.77H58.86V46.9H67v.87H63.4v9h-1Z"/><path d="M72.42,52.53,69.08,46.9h1.11l2.1,3.58c.3.51.61,1.18.61,1.18h0s.3-.66.61-1.18l2.1-3.58h1.1L73.4,52.53v4.24h-1Z"/><path d="M28.76,46.75a5,5,0,0,1,5,5,5,5,0,1,1-10.09,0A5,5,0,0,1,28.76,46.75Zm0,9.31a4.12,4.12,0,0,0,4-4.27,4,4,0,1,0-8.06,0A4.11,4.11,0,0,0,28.76,56.06Z"/><path d="M29,27.81a5,5,0,0,1,5,5,5,5,0,1,1-10.09,0A5,5,0,0,1,29,27.81Zm0,9.31a4.12,4.12,0,0,0,4-4.27,4,4,0,1,0-8.06,0A4.11,4.11,0,0,0,29,37.12Z"/><path d="M38.25,33.61,34.91,28H36l2.1,3.58c.3.51.61,1.18.61,1.18h0s.3-.66.61-1.18L41.46,28h1.1l-3.33,5.63v4.24h-1Z"/><path d="M48.71,34.7h-4l-1.13,3.15h-1L46.2,28h1l3.64,9.88h-1Zm-2-5.7s-.21.81-.38,1.28L45,33.86h3.41l-1.3-3.58c-.17-.46-.38-1.28-.38-1.28Z"/><path d="M53.31,28h1v9h4.59v.87H53.31Z"/><path d="M18.53,66.92h-3V65.47h7.78v1.45h-3v7.81H18.53Z"/><path d="M25.7,65.47h5.56v1.45H27.39v2.42h3.12v1.45H27.39v2.49h4.08v1.45H25.7Z"/><path d="M42.78,72.35H39.52l-.78,2.37H37l3.27-9.25H42l3.27,9.25H43.56Zm-1.63-5.28s-.21.91-.39,1.43L39.93,71h2.43l-.82-2.48c-.17-.52-.37-1.43-.37-1.43Z"/><path d="M98.41,65.32a5.07,5.07,0,0,1,3.45,1.17L101,67.74a4,4,0,0,0-2.47-.89A3,3,0,0,0,95.36,70a3.1,3.1,0,0,0,3.11,3.31,3.5,3.5,0,0,0,2.33-1V71.3H99.37V69.85h2.94v4.87h-1.44v-.44c0-.2,0-.39,0-.39h0a3.94,3.94,0,0,1-2.69,1,4.56,4.56,0,0,1-4.55-4.8A4.67,4.67,0,0,1,98.41,65.32Z"/><path d="M104.63,65.47h1.69v9.25h-1.69Z"/><path d="M47.4,65.47H51a2.84,2.84,0,0,1,3,3,2.87,2.87,0,0,1-3,3h-1.9v3.19H47.4Zm3.27,4.6a1.46,1.46,0,0,0,1.56-1.59,1.44,1.44,0,0,0-1.53-1.56H49.09v3.15Z"/><path d="M64.84,65.47h3a4.33,4.33,0,0,1,1.87.26,2.61,2.61,0,0,1,1.52,2.53,2.66,2.66,0,0,1-1.57,2.53v0a2.27,2.27,0,0,1,.31.46l1.91,3.45H70l-1.84-3.45H66.53v3.45H64.84ZM68,69.81a1.34,1.34,0,0,0,1.46-1.46c0-.89-.38-1.43-1.7-1.43H66.53v2.89Z"/><path d="M79.35,72.35H76.09l-.78,2.37H73.57l3.27-9.25H78.6l3.27,9.25H80.13Zm-1.63-5.28s-.21.91-.39,1.43L76.5,71h2.43l-.82-2.48c-.17-.52-.37-1.43-.37-1.43Z"/><path d="M83.91,65.47h1.69l3.52,5.34a14,14,0,0,1,.77,1.43h0s-.09-.89-.09-1.43V65.47h1.67v9.25H89.82L86.3,69.39A14,14,0,0,1,85.53,68h0s.09.89.09,1.43v5.33H83.91Z"/><path d="M60.3,72.35H57l-.78,2.37H54.52l3.27-9.25h1.77l3.27,9.25H61.09Zm-1.63-5.28s-.21.91-.39,1.43L57.45,71h2.43l-.82-2.48c-.17-.52-.37-1.43-.37-1.43Z"/><rect x="56.5" y="63.1" width="4.34" height="0.68"/><path d="M28.44,41.7a10.29,10.29,0,0,1-7-4.77l-1.84-3.39.26-.09a2.72,2.72,0,0,0,1.87-2.67,2.63,2.63,0,0,0-1.49-2.54A4.41,4.41,0,0,0,18.41,28H15.48v9.87h1V33.69s1.47,0,2.2,0l2,3.66a9.08,9.08,0,0,0,7.79,4.46c.39,0,.59,0,.59,0A3.17,3.17,0,0,0,28.44,41.7Zm-12-8.88v-4h2a2.85,2.85,0,0,1,1.41.24,1.83,1.83,0,0,1,.9,1.73,1.85,1.85,0,0,1-2,2Z"/></g></g></svg>