<svg xmlns="http://www.w3.org/2000/svg" viewBox="0 0 33.52 25.52"><defs><style>.cls-1{fill:#00c4b3;}</style></defs><title>quote-icon</title><g id="Layer_2" data-name="Layer 2"><g id="Layer_1-2" data-name="Layer 1"><path class="cls-1" d="M9.36,11.52a7.85,7.85,0,0,0-1.84.24c.8-2.88,4.16-6.32,6.72-7.6L9.12,0C3.52,4,0,9.68,0,16.24c0,5.84,3.84,9.28,8.16,9.28a7.46,7.46,0,0,0,7.36-7.44A6.21,6.21,0,0,0,9.36,11.52Z"/><path class="cls-1" d="M27.36,11.52a7.84,7.84,0,0,0-1.84.24c.88-2.88,4.16-6.32,6.72-7.6L27.12,0C21.52,4,18,9.68,18,16.24c0,5.84,3.92,9.28,8.24,9.28a7.45,7.45,0,0,0,7.28-7.44C33.52,14.16,30.8,11.52,27.36,11.52Z"/></g></g></svg>