<svg xmlns="http://www.w3.org/2000/svg" viewBox="0 0 175.72 20"><defs><style>.cls-1{fill:#ea1c24;}.cls-2{fill:#ed1c24;}.cls-3{fill:#fff;}</style></defs><title>footer-logo-microsite</title><g id="Layer_2" data-name="Layer 2"><g id="Layer_1-2" data-name="Layer 1"><rect class="cls-1" x="55.89" width="1" height="20"/><rect class="cls-2" x="130.89" width="1" height="20"/><path class="cls-3" d="M1.41,9.6H3.81v1.15H1.41v1.72H3.81v1.15H0V6.76H3.81V7.92H1.41Z"/><path class="cls-3" d="M7.24,13.62H5.61L7.77,10,5.85,6.76H7.47l1.1,2,1.13-2h1.6L9.37,10l2.13,3.62H9.9L8.57,11.24Z"/><path class="cls-3" d="M14.84,13.62H13.43V6.76h2.19c1.62,0,2.54.79,2.54,2.19a2.21,2.21,0,0,1-2.45,2.31h-.87Zm.61-3.51c.81,0,1.28-.39,1.28-1.08s-.48-1.1-1.25-1.1h-.64V10.1Z"/><path class="cls-3" d="M24,12.46v1.16h-3.7V6.76h1.41v5.69Z"/><path class="cls-3" d="M31.51,7.78a3.5,3.5,0,0,1,.87,2.45,3.54,3.54,0,1,1-3.48-3.6A3.5,3.5,0,0,1,31.51,7.78Zm-4.77,2.43a2.11,2.11,0,1,0,4.21,0,2.11,2.11,0,1,0-4.21,0Z"/><path class="cls-3" d="M35.93,13.62H34.52V6.76h2.12c1.7,0,2.61.75,2.61,2.16A2,2,0,0,1,37.63,11l1.89,2.63H37.81L35.93,10.9Zm.64-3.55c.8,0,1.25-.39,1.25-1.08a1,1,0,0,0-1.13-1.07h-.76v2.15Z"/><path class="cls-3" d="M43,9.6h2.41v1.15H43v1.72h2.41v1.15H41.57V6.76h3.81V7.92H43Z"/><path class="cls-3" d="M68,6.76H69.9a3.46,3.46,0,0,1,2.47.76,3.34,3.34,0,0,1,1.08,2.59,3.6,3.6,0,0,1-1.09,2.71,3.46,3.46,0,0,1-2.37.79H68Zm1.41,5.69h.27A2.28,2.28,0,0,0,71.25,12,2.35,2.35,0,0,0,72,10.16,2.05,2.05,0,0,0,69.88,7.9h-.51Z"/><path class="cls-3" d="M77.06,13.62H75.65V6.76h1.41Z"/><path class="cls-3" d="M80.55,11.61v.09a.85.85,0,0,0,.94.8.82.82,0,0,0,.9-.73.68.68,0,0,0-.28-.54,2.73,2.73,0,0,0-.83-.38c-1.5-.53-2-1.1-2-2.15a2.06,2.06,0,0,1,2.26-2.08,2.15,2.15,0,0,1,2.31,2.1H82.4a.81.81,0,0,0-.89-.85.75.75,0,0,0-.84.72.72.72,0,0,0,.42.65,4.88,4.88,0,0,0,.8.34,3.86,3.86,0,0,1,1.43.76,1.77,1.77,0,0,1,.54,1.33,2.11,2.11,0,0,1-2.36,2.09,2.06,2.06,0,0,1-2.31-2.14Z"/><path class="cls-3" d="M91.68,12.72a3.42,3.42,0,0,1-2.55,1,3.16,3.16,0,0,1-2.46-1,3.79,3.79,0,0,1-.92-2.52,3.47,3.47,0,0,1,6-2.49l-.91.93a2.26,2.26,0,0,0-1.6-.71,2.06,2.06,0,0,0-2,2.24,2.12,2.12,0,0,0,2.12,2.27,1.9,1.9,0,0,0,1.53-.7Z"/><path class="cls-3" d="M99.37,7.78a3.49,3.49,0,0,1,.87,2.45,3.54,3.54,0,1,1-3.48-3.6A3.5,3.5,0,0,1,99.37,7.78ZM94.6,10.21a2.11,2.11,0,1,0,4.21,0,2.11,2.11,0,1,0-4.21,0Z"/><path class="cls-3" d="M105.92,6.76h1.45l-2.16,6.86h-1.5l-2.08-6.86h1.45l1.39,4.59Z"/><path class="cls-3" d="M110.5,9.6h2.4v1.15h-2.4v1.72h2.4v1.15h-3.81V6.76h3.81V7.92h-2.4Z"/><path class="cls-3" d="M116.6,13.62h-1.41V6.76h2.12c1.7,0,2.61.75,2.61,2.16A2,2,0,0,1,118.3,11l1.89,2.63h-1.71L116.6,10.9Zm.64-3.55c.8,0,1.25-.39,1.25-1.08a1,1,0,0,0-1.13-1.07h-.76v2.15Z"/><path class="cls-3" d="M143.95,11.61v.09a.85.85,0,0,0,.94.8.82.82,0,0,0,.9-.73.68.68,0,0,0-.28-.54,2.72,2.72,0,0,0-.83-.38c-1.5-.53-2-1.1-2-2.15a2.06,2.06,0,0,1,2.26-2.08,2.15,2.15,0,0,1,2.31,2.1H145.8a.81.81,0,0,0-.89-.85.75.75,0,0,0-.84.72.72.72,0,0,0,.42.65,4.83,4.83,0,0,0,.8.34,3.85,3.85,0,0,1,1.43.76,1.77,1.77,0,0,1,.55,1.33,2.11,2.11,0,0,1-2.36,2.09,2.06,2.06,0,0,1-2.31-2.14Z"/><path class="cls-3" d="M150.78,13.62h-1.41V6.76h1.41v2.9h2.6V6.76h1.41v6.86h-1.41V10.81h-2.6Z"/><path class="cls-3" d="M158.53,12.44l-.41,1.18h-1.49L159,6.76h1.76l2.34,6.86h-1.54l-.39-1.18Zm1.32-4-1,2.84h1.9Z"/><path class="cls-3" d="M166.33,13.62h-1.41V6.76H167c1.7,0,2.61.75,2.61,2.16A2,2,0,0,1,168,11l1.89,2.63h-1.71l-1.88-2.72Zm.64-3.55c.8,0,1.25-.39,1.25-1.08a1,1,0,0,0-1.13-1.07h-.76v2.15Z"/><path class="cls-3" d="M173.31,9.6h2.41v1.15h-2.41v1.72h2.41v1.15H171.9V6.76h3.81V7.92h-2.41Z"/></g></g></svg>