<svg xmlns="http://www.w3.org/2000/svg" viewBox="0 0 47.09 47.09"><defs><style>.cls-1{fill:#fff;}</style></defs><title>share-icon</title><g id="Layer_2" data-name="Layer 2"><g id="Layer_1-2" data-name="Layer 1"><path class="cls-1" d="M33.14,19.84a3.53,3.53,0,0,0-2.51,1L21.72,15.7a2.11,2.11,0,0,0,.13-.88,3.77,3.77,0,1,0-3.77,3.77,3.51,3.51,0,0,0,2.51-1l8.91,5.15a2.18,2.18,0,0,0-.12.88,2.18,2.18,0,0,0,.12.88l-8.91,5.28a3.49,3.49,0,0,0-2.51-1,3.64,3.64,0,1,0,3.64,3.64,2.54,2.54,0,0,0-.12-.88l8.91-5.27a3.52,3.52,0,0,0,2.51,1,3.69,3.69,0,0,0,3.76-3.76A3.49,3.49,0,0,0,33.14,19.84Z"/><path class="cls-1" d="M23.54,0A23.54,23.54,0,1,0,47.09,23.54,23.57,23.57,0,0,0,23.54,0Zm0,46.09A22.54,22.54,0,1,1,46.09,23.54,22.57,22.57,0,0,1,23.54,46.09Z"/></g></g></svg>