<svg xmlns="http://www.w3.org/2000/svg" viewBox="0 0 47.09 47.09"><defs><style>.cls-1{fill:#d32b1e;}</style></defs><title>twitter-icon-hover</title><g id="Layer_2" data-name="Layer 2"><g id="Layer_1-2" data-name="Layer 1"><path class="cls-1" d="M23.54,0A23.54,23.54,0,1,0,47.09,23.54,23.57,23.57,0,0,0,23.54,0ZM33.75,17.86a10.62,10.62,0,0,1-1.59,1.68.44.44,0,0,0-.11.3,16.57,16.57,0,0,1-.34,3.82,16.84,16.84,0,0,1-2.56,6.09,13.45,13.45,0,0,1-4.28,4.07,12.16,12.16,0,0,1-4.3,1.55,12.94,12.94,0,0,1-4,0A12,12,0,0,1,12.42,34c-.42-.24-.84-.51-1.26-.76l0-.05A8.84,8.84,0,0,0,18.11,31a4.68,4.68,0,0,1-2.71-1.09,5.38,5.38,0,0,1-1.69-2.64,4.55,4.55,0,0,0,2.09-.09c-2.38-.8-3.63-2.54-3.77-5.27a4.84,4.84,0,0,0,2.08.6c-2.11-2-2.58-4.32-1.43-7.14a13.31,13.31,0,0,0,9.89,5.62c0-.34-.07-.65-.08-1A5.46,5.46,0,0,1,24,15.8a4.42,4.42,0,0,1,6.61.1.29.29,0,0,0,.33.1,9.24,9.24,0,0,0,2.67-1.14l.17-.09a5.33,5.33,0,0,1-2,2.86v.06c.29-.06.57-.11.86-.18s.58-.16.86-.26.56-.22.87-.3C34.18,17.25,34,17.57,33.75,17.86Z"/></g></g></svg>