<svg xmlns="http://www.w3.org/2000/svg" viewBox="0 0 47.09 47.09"><title>twitter-icon</title><g id="Layer_2" data-name="Layer 2"><g id="Layer_1-2" data-name="Layer 1"><path d="M23.54,0A23.54,23.54,0,1,0,47.09,23.54,23.57,23.57,0,0,0,23.54,0Zm0,46.09A22.54,22.54,0,1,1,46.09,23.54,22.57,22.57,0,0,1,23.54,46.09Z"/><path d="M32.66,17.51c-.28.07-.57.12-.86.18v-.06a5.33,5.33,0,0,0,2-2.86l-.17.09A9.24,9.24,0,0,1,30.93,16a.29.29,0,0,1-.33-.1A4.42,4.42,0,0,0,24,15.8,5.46,5.46,0,0,0,22.48,20c0,.31.05.62.08,1a13.31,13.31,0,0,1-9.89-5.62c-1.14,2.82-.68,5.18,1.43,7.14a4.84,4.84,0,0,1-2.08-.6c.14,2.73,1.39,4.47,3.77,5.27a4.55,4.55,0,0,1-2.09.09,5.38,5.38,0,0,0,1.69,2.64A4.67,4.67,0,0,0,18.11,31a8.84,8.84,0,0,1-6.93,2.21l0,.05c.42.25.83.52,1.26.76a12,12,0,0,0,4.13,1.42,12.94,12.94,0,0,0,4,0,12.16,12.16,0,0,0,4.3-1.55,13.46,13.46,0,0,0,4.28-4.07,16.83,16.83,0,0,0,2.56-6.09,16.58,16.58,0,0,0,.34-3.82.44.44,0,0,1,.11-.3,10.61,10.61,0,0,0,1.59-1.68c.22-.3.43-.61.64-.91-.31.08-.59.2-.87.3S33,17.44,32.66,17.51Z"/></g></g></svg>