<svg xmlns="http://www.w3.org/2000/svg" viewBox="0 0 47.09 47.09"><title>vimeo-icon</title><g id="Layer_2" data-name="Layer 2"><g id="Layer_1-2" data-name="Layer 1"><path d="M23.54,0A23.54,23.54,0,1,0,47.09,23.54,23.57,23.57,0,0,0,23.54,0Zm0,46.09A22.54,22.54,0,1,1,46.09,23.54,22.57,22.57,0,0,1,23.54,46.09Z"/><path d="M31.41,14c-3.3-.11-5.64,1.65-6.94,5.22a.53.53,0,0,0,.64.69,4.17,4.17,0,0,1,1.11-.16,1.81,1.81,0,0,1,1.44.51,1.62,1.62,0,0,1,.1,1.44,20.13,20.13,0,0,1-1.89,3.48c-1.17,1.84-1.82,2.67-2,2.67-.62,0-2.85-9.91-2.92-10.13-.64-2.27-1-3.41-3-3.41-1.59,0-5.13,2.9-8,5.43l-.45.39a.69.69,0,0,0-.1,1l.54.7a.69.69,0,0,0,.95.14l0,0a6.16,6.16,0,0,1,2.5-1.34c.73,0,1.36,1.1,2.12,3.82,1.44,5.27,3.62,11.55,5.86,11.55s5.14-2,8.75-6.69c3.27-4.26,5-7.63,5.13-10.09a5.51,5.51,0,0,0-1.07-4.08A3.69,3.69,0,0,0,31.41,14Z"/></g></g></svg>