<svg xmlns="http://www.w3.org/2000/svg" viewBox="0 0 16.71 16.71"><defs><style>.cls-1{fill:#cf0000;}</style></defs><title>pdf-icon</title><g id="Layer_2" data-name="Layer 2"><g id="Layer_1-2" data-name="Layer 1"><g id="Core"><g id="drive-pdf"><path id="Shape" class="cls-1" d="M7.71,5.2h0a3.45,3.45,0,0,0,.19-.84V4.18a1.45,1.45,0,0,0,0-.93V3.16L7.8,3.06h0a.09.09,0,0,1-.09.09,3.78,3.78,0,0,0,0,2ZM4.92,11.61a2,2,0,0,0-.46.28,4.57,4.57,0,0,0-1.21,1.49h0c.56-.09,1.11-.65,1.67-1.76Zm8.54-1.39c-.09-.09-.46-.37-1.76-.37h-.19v.09a5,5,0,0,0,1.76.46h.28v-.09h0a.09.09,0,0,1-.09-.09ZM14.85,0h-13A1.86,1.86,0,0,0,0,1.86v13a1.86,1.86,0,0,0,1.86,1.86h13a1.86,1.86,0,0,0,1.86-1.86v-13A1.86,1.86,0,0,0,14.85,0Zm-1,11a1.85,1.85,0,0,1-.84.19,6.69,6.69,0,0,1-2.79-.65,15.29,15.29,0,0,0-3.71.74c-.09,0-.09,0-.19.09-1.11,1.95-2,2.88-2.79,2.88-.19,0-.28,0-.37-.09l-.46-.28v-.09a.84.84,0,0,1-.09-.46,3.57,3.57,0,0,1,1.76-1.95c.19-.09.46-.28.84-.46.28-.46.56-1,.93-1.67a19.64,19.64,0,0,0,1-2.69h0A4.31,4.31,0,0,1,7,3.44c.09-.37.37-.74.74-.74h.19a1.32,1.32,0,0,1,.56.19c.65.65.37,2.14,0,3.34v.09A6.71,6.71,0,0,0,9.93,8.73a6.52,6.52,0,0,0,.84.56c.46,0,.84-.09,1.21-.09,1.11,0,1.86.19,2.14.65a1.18,1.18,0,0,1,.09.56,5.69,5.69,0,0,1-.37.56Zm-6-3.62a19.33,19.33,0,0,1-.93,2.23c-.19.37-.37.65-.56,1H6.5a14,14,0,0,1,3.06-.84,1.28,1.28,0,0,1-.37-.28A9.44,9.44,0,0,1,7.8,7.33Z"/></g></g></g></g></svg>