<svg xmlns="http://www.w3.org/2000/svg" viewBox="0 0 47.09 47.09"><title>facebook-icon</title><g id="Layer_2" data-name="Layer 2"><g id="Layer_1-2" data-name="Layer 1"><path d="M23.54,0A23.54,23.54,0,1,0,47.09,23.54,23.57,23.57,0,0,0,23.54,0Zm0,46.09A22.54,22.54,0,1,1,46.09,23.54,22.57,22.57,0,0,1,23.54,46.09Z"/><path d="M29.45,11.54c-1.2,0-2.41-.1-3.61-.08A5,5,0,0,0,21,14.95a10.28,10.28,0,0,0-.3,3.29V20.3H16.93v4.35h3.82v.58q0,4.95,0,9.89c0,.17,0,.35,0,.52h4.47c0-.17,0-.35,0-.52q0-5,0-9.93v-.55h.5c1,0,1.91,0,2.86,0,.31,0,.49,0,.51-.41,0-.54.15-1.07.22-1.6.1-.76.19-1.52.29-2.35h-4.3c0-1.17,0-2.28,0-3.38a1.31,1.31,0,0,1,1.29-1.28c.84-.07,1.69-.07,2.54-.09h.64c0-1.28,0-2.49,0-3.7C29.84,11.55,29.65,11.54,29.45,11.54Z"/></g></g></svg>