<svg xmlns="http://www.w3.org/2000/svg" viewBox="0 0 47.09 47.09"><defs><style>.cls-1{fill:#d32b1e;}</style></defs><title>facebook-icon-hover</title><g id="Layer_2" data-name="Layer 2"><g id="Layer_1-2" data-name="Layer 1"><path class="cls-1" d="M23.54,0A23.54,23.54,0,1,0,47.09,23.54,23.57,23.57,0,0,0,23.54,0Zm6.29,15.53H29.2c-.85,0-1.7,0-2.54.09a1.31,1.31,0,0,0-1.29,1.28c-.05,1.1,0,2.21,0,3.38h4.3c-.1.83-.19,1.59-.29,2.35-.07.53-.19,1.06-.22,1.6,0,.38-.2.41-.51.41-1,0-1.91,0-2.86,0h-.5v.55q0,5,0,9.93c0,.17,0,.35,0,.52H20.77c0-.17,0-.35,0-.52q0-4.95,0-9.89v-.58H16.93V20.3h3.82c0-.73,0-1.39,0-2.06a10.28,10.28,0,0,1,.3-3.29,5,5,0,0,1,4.79-3.49c1.2,0,2.41.05,3.61.08.2,0,.39,0,.39.3C29.83,13,29.83,14.25,29.83,15.53Z"/></g></g></svg>